<svg width="174" height="153" viewBox="0 0 174 153" fill="none" xmlns="http://www.w3.org/2000/svg">
<g clip-path="url(#clip0_2_175)">
<path d="M172.614 150.812C172.31 151.237 172.003 151.659 171.699 152.078C170.825 152.681 169.788 153.002 168.727 153H5.27273C4.259 153.001 3.26676 152.708 2.41615 152.156C2.13386 151.784 1.85474 151.408 1.57245 151.032L1.85474 150.877L84.6025 104.984C85.3367 104.577 86.1618 104.364 87.0008 104.362C87.8398 104.361 88.6655 104.573 89.4007 104.977L172.334 150.657L172.614 150.812Z" fill="black"/>
<path d="M168.727 54.3104L97.0125 12.8699C93.9962 11.1269 90.5747 10.2085 87.0916 10.2068C83.6084 10.2051 80.186 11.1201 77.168 12.8601L5.27273 54.3104C3.87492 54.3124 2.53493 54.8689 1.54653 55.8578C0.558133 56.8468 0.0019774 58.1876 0 59.5863V147.724C0.0016286 149.123 0.55767 150.464 1.54615 151.453C2.53462 152.442 3.87481 152.998 5.27273 153H168.727C170.125 152.998 171.465 152.441 172.453 151.452C173.441 150.463 173.998 149.123 174 147.724V59.5863C173.998 58.1876 173.442 56.8468 172.453 55.8578C171.465 54.8689 170.125 54.3124 168.727 54.3104ZM173.38 147.724C173.377 148.958 172.886 150.14 172.014 151.013C171.142 151.885 169.96 152.376 168.727 152.379H5.27273C4.03951 152.377 2.85745 151.886 1.98543 151.013C1.11342 150.141 0.62254 148.958 0.620321 147.724V59.5863C0.621821 58.3521 1.11247 57.1689 1.98464 56.2962C2.85681 55.4235 4.03929 54.9326 5.27273 54.9311L77.168 13.4808C80.186 11.7408 83.6084 10.8258 87.0916 10.8275C90.5747 10.8292 93.9962 11.7476 97.0125 13.4906L168.727 54.9311C169.961 54.9326 171.143 55.4235 172.015 56.2962C172.888 57.1689 173.378 58.3521 173.38 59.5863V147.724Z" fill="#3F3D56"/>
<path d="M87.093 104.177C86.5528 104.178 86.0162 104.088 85.5062 103.91L85.4124 103.877L85.3934 103.668C85.3349 103.697 85.2759 103.725 85.2169 103.751L85.1545 103.778L85.092 103.751C84.9613 103.693 84.8315 103.628 84.7063 103.558L27.6043 71.4514V5.89653C27.606 4.37435 28.2111 2.915 29.2868 1.83865C30.3625 0.762303 31.821 0.15686 33.3422 0.155151H140.658C142.179 0.15686 143.638 0.762303 144.713 1.83865C145.789 2.915 146.394 4.37435 146.396 5.89653V71.5352L146.317 71.5798L89.4798 103.558C88.7501 103.965 87.9284 104.178 87.093 104.177Z" fill="white"/>
<path d="M87.093 104.332C86.5353 104.334 85.9813 104.241 85.4547 104.057L85.2669 103.99L85.2589 103.902L85.1544 103.948L85.0296 103.893C84.8942 103.833 84.7599 103.766 84.6302 103.693L27.4492 71.5424V5.89655C27.451 4.33323 28.0724 2.83445 29.1772 1.72902C30.282 0.623581 31.7799 0.0017693 33.3422 0H140.658C142.22 0.00177586 143.718 0.623587 144.823 1.72902C145.928 2.83445 146.549 4.33323 146.551 5.89655V71.626L89.5557 103.693C88.8029 104.113 87.955 104.333 87.093 104.332ZM85.8482 103.532C86.9885 103.86 88.212 103.723 89.252 103.152L145.93 71.2629V5.89655C145.929 4.49779 145.373 3.15677 144.384 2.16769C143.396 1.17862 142.056 0.622264 140.658 0.62069H33.3422C31.9443 0.622258 30.6041 1.17861 29.6156 2.16769C28.6271 3.15676 28.0711 4.49779 28.0695 5.89655V71.179L31.7882 73.2687L84.9344 103.152C85.0067 103.193 85.0801 103.231 85.1546 103.267C85.2291 103.231 85.3024 103.193 85.3746 103.152L85.7922 102.917L85.8482 103.532Z" fill="#3F3D56"/>
<path d="M172.626 56.6007L150.118 69.2627L146.241 71.4445L89.4037 103.422C88.6974 103.817 87.9018 104.023 87.093 104.021C86.5704 104.023 86.0513 103.936 85.5578 103.764C85.4205 103.72 85.2858 103.668 85.1545 103.609C85.0274 103.553 84.9034 103.491 84.7824 103.422L31.6364 73.5393L27.7594 71.3607L1.42055 56.551C1.34894 56.5099 1.2964 56.4422 1.27434 56.3626C1.25228 56.283 1.26248 56.198 1.30273 56.1258C1.34309 56.0543 1.41017 56.0017 1.48924 55.9796C1.56832 55.9575 1.65293 55.9677 1.72451 56.0079L27.7594 70.6469L31.6364 72.8255L85.0863 102.879C85.2636 102.979 85.4482 103.065 85.6384 103.137C85.7191 103.168 85.8028 103.196 85.8866 103.221C86.4175 103.384 86.9758 103.438 87.5281 103.379C88.0803 103.32 88.615 103.15 89.0998 102.879L146.241 70.7338L150.118 68.5521L172.322 56.0607C172.357 56.0407 172.396 56.0279 172.437 56.023C172.477 56.0181 172.518 56.0213 172.557 56.0322C172.596 56.0432 172.633 56.0617 172.665 56.0869C172.697 56.112 172.724 56.1431 172.744 56.1786C172.764 56.2141 172.777 56.2531 172.781 56.2935C172.786 56.3339 172.783 56.3749 172.772 56.4141C172.761 56.4532 172.743 56.4899 172.718 56.5219C172.693 56.5539 172.661 56.5807 172.626 56.6007Z" fill="#3F3D56"/>
<path d="M50.8895 20.4827H42.205C41.5469 20.4827 40.9158 20.2212 40.4505 19.7555C39.9852 19.2899 39.7237 18.6584 39.7237 18C39.7237 17.3415 39.9852 16.71 40.4505 16.2444C40.9158 15.7788 41.5469 15.5172 42.205 15.5172H50.8895C51.5476 15.5172 52.1787 15.7788 52.644 16.2444C53.1094 16.71 53.3708 17.3415 53.3708 18C53.3708 18.6584 53.1094 19.2899 52.644 19.7555C52.1787 20.2212 51.5476 20.4827 50.8895 20.4827Z" fill="black"/>
<path d="M61.1248 28.8621H42.205C41.5469 28.8621 40.9158 28.6005 40.4505 28.1349C39.9852 27.6693 39.7237 27.0378 39.7237 26.3794C39.7237 25.7209 39.9852 25.0894 40.4505 24.6238C40.9158 24.1582 41.5469 23.8966 42.205 23.8966H61.1248C61.7829 23.8966 62.414 24.1582 62.8793 24.6238C63.3447 25.0894 63.6061 25.7209 63.6061 26.3794C63.6061 27.0378 63.3447 27.6693 62.8793 28.1349C62.414 28.6005 61.7829 28.8621 61.1248 28.8621Z" fill="#E6E6E6"/>
<path d="M113.984 51.2069H60.3262C59.6681 51.2069 59.037 50.9453 58.5717 50.4797C58.1063 50.0141 57.8449 49.3826 57.8449 48.7241C57.8449 48.0656 58.1063 47.4341 58.5717 46.9685C59.037 46.5029 59.6681 46.2413 60.3262 46.2413H113.984C114.642 46.2413 115.273 46.5029 115.738 46.9685C116.204 47.4341 116.465 48.0656 116.465 48.7241C116.465 49.3826 116.204 50.0141 115.738 50.4797C115.273 50.9453 114.642 51.2069 113.984 51.2069Z" fill="black"/>
<path d="M118.947 60.8276H55.0535C54.3954 60.8276 53.7643 60.566 53.2989 60.1004C52.8336 59.6348 52.5722 59.0033 52.5722 58.3448C52.5722 57.6864 52.8336 57.0548 53.2989 56.5892C53.7643 56.1236 54.3954 55.8621 55.0535 55.8621H118.947C119.605 55.8621 120.236 56.1236 120.701 56.5892C121.166 57.0548 121.428 57.6864 121.428 58.3448C121.428 59.0033 121.166 59.6348 120.701 60.1004C120.236 60.566 119.605 60.8276 118.947 60.8276Z" fill="#E6E6E6"/>
<path d="M118.947 70.1379H55.0535C54.3954 70.1379 53.7643 69.8763 53.2989 69.4107C52.8336 68.9451 52.5722 68.3136 52.5722 67.6551C52.5722 66.9967 52.8336 66.3652 53.2989 65.8995C53.7643 65.4339 54.3954 65.1724 55.0535 65.1724H118.947C119.605 65.1724 120.236 65.4339 120.701 65.8995C121.166 66.3652 121.428 66.9967 121.428 67.6551C121.428 68.3136 121.166 68.9451 120.701 69.4107C120.236 69.8763 119.605 70.1379 118.947 70.1379Z" fill="#E6E6E6"/>
</g>
<defs>
<clipPath id="clip0_2_175">
<rect width="174" height="153" fill="white"/>
</clipPath>
</defs>
</svg>
